<?xml version="1.0" encoding="utf-8"?>
<!-- Generator: Adobe Illustrator 16.0.0, SVG Export Plug-In . SVG Version: 6.00 Build 0)  -->
<!DOCTYPE svg PUBLIC "-//W3C//DTD SVG 1.1//EN" "http://www.w3.org/Graphics/SVG/1.1/DTD/svg11.dtd">
<svg version="1.1" id="Layer_1" xmlns="http://www.w3.org/2000/svg" xmlns:xlink="http://www.w3.org/1999/xlink" x="0px" y="0px"
	 width="1794px" height="173px" viewBox="0 0 1794 173" enable-background="new 0 0 1794 173" xml:space="preserve">
<path fill="#F4F4F4" d="M21.482,148.263l93.984,0.172l-0.036,21.061L0.5,169.281L0.806,0.5l20.943,0.04L21.482,148.263z
	 M1259.473,2.733l-20.939-0.037l-0.308,168.784l114.976,0.21l0.037-21.06l-94.033-0.172L1259.473,2.733z M1479.424,3.137
	l-20.898-0.037l-0.307,168.783l114.979,0.211l0.037-21.058l-94.076-0.176L1479.424,3.137z M294.163,0.975l-73.847,168.783
	l22.38,0.041l61.546-140.667l61.04,140.892l22.382,0.043L314.432,1.01L294.163,0.975z M1012.11,171.075l114.925,0.213l0.038-21.063
	l-93.987-0.172l0.096-52.651l80.115,0.148l0.038-21.089l-80.115-0.146l0.096-52.898l93.986,0.174l0.044-21.09L1012.414,2.29
	L1012.11,171.075z M901.032,119.772c-0.055,28.712-21.576,51.049-48.055,50.999l-78.83-0.123l0.305-168.74l62.528,0.093
	c26.436,0.051,47.877,20.016,47.835,44.48c-0.018,8.444-2.243,20.65-9.691,28.647C891.91,83.624,901.064,101.25,901.032,119.772z
	 M795.314,67.604l41.547,0.058c14.908,0.026,26.628-8.281,26.655-22.376c0.027-14.365-11.67-22.081-26.573-22.107l-41.545-0.054
	L795.314,67.604z M879.73,119.074c0.031-17.359-11.878-30.23-26.605-30.257l-57.845-0.081l-0.114,60.866l57.85,0.085
	C867.739,149.714,879.699,136.44,879.73,119.074z M1793.456,24.804l0.044-21.087l-114.972-0.213l-0.308,168.786l114.969,0.21
	l0.041-21.061l-94.033-0.172l0.101-52.652l80.116,0.146l0.034-21.086l-80.118-0.147l0.099-52.902L1793.456,24.804z M626.528,132.745
	L514.787,1.468l-22.02-0.042l-0.306,168.74l20.669,0.038l0.252-139.05l118.883,139.272l15.314,0.028l0.309-168.738l-21.122-0.04
	L626.528,132.745z"/>
</svg>
